# xmcd
#
# Track frame offsets: 
#        150
#        8167
#        19396
#
# Disc length: 448 seconds
#
# Revision: 0
# Processed by: cddbd v1.5.2PL0 Copyright (c) Steve Scherf et al.
# Submitted via: ExactAudioCopy v0.95b4
#
DISCID=1a01be03
DTITLE=Coffinshaker, Rob - Fairytales From The Dungeon EP
DYEAR=2003
DGENRE=Country
TTITLE0=Ring Of Fire
TTITLE1=The Long Black Veil
TTITLE2=Until The End
EXTD=
EXTT0=
EXTT1=
EXTT2=
PLAYORDER=
